<?xml version="1.0" standalone="no"?>
<!DOCTYPE svg PUBLIC "-//W3C//DTD SVG 20010904//EN" "http://www.w3.org/TR/2001/REC-SVG-20010904/DTD/svg10.dtd">
<!-- Created using Krita: https://krita.org -->
<svg xmlns="http://www.w3.org/2000/svg" 
    xmlns:xlink="http://www.w3.org/1999/xlink"
    xmlns:krita="http://krita.org/namespaces/svg/krita"
    xmlns:sodipodi="http://sodipodi.sourceforge.net/DTD/sodipodi-0.dtd"
    width="122.88pt"
    height="122.88pt"
    viewBox="0 0 122.88 122.88">
<defs/>
<path id="shape2" transform="matrix(1.00000002235174 0 0 1.00000002235174 7.68000017166138 103.680002317429)" fill="none" stroke="#f7e163" stroke-width="3.84" stroke-linecap="round" stroke-linejoin="round" d="M0 0L38.4 0" sodipodi:nodetypes="cc"/><path id="shape3" transform="matrix(1.00000002235174 0 0 1.00000002235174 92.1600020599366 103.680002317429)" fill="none" stroke="#f7e163" stroke-width="3.84" stroke-linecap="round" stroke-linejoin="round" d="M0 0L23.04 0" sodipodi:nodetypes="cc"/><path id="shape4" transform="matrix(1.00000002235174 0 0 1.00000002235174 46.0800010299683 111.23871906699)" fill="none" stroke="#f7e163" stroke-width="7.68" stroke-linecap="round" stroke-linejoin="round" d="M38.4 3.96128C28.16 1.244 20.48 -0.0753254 15.36 0.0033181C10.24 0.0819617 5.12 0.761283 0 2.04128" sodipodi:nodetypes="czc"/><path id="shape5" transform="matrix(1.00000002235174 0 0 1.00000002235174 46.0800010299683 84.4800018882752)" fill="none" stroke="#f7e163" stroke-width="7.68" stroke-linecap="round" stroke-linejoin="round" d="M0 0L46.08 0" sodipodi:nodetypes="cc"/><path id="shape6" transform="matrix(1.00000002235174 0 0 1.00000002235174 67.2000015020371 84.4804122090955)" fill="none" stroke="#f7e163" stroke-width="5.76" stroke-linecap="round" stroke-linejoin="round" d="M0 0L0 23.0392" sodipodi:nodetypes="cc"/><path id="shape7" transform="matrix(1.00000002235174 0 0 1.00000002235174 46.0800010299683 69.1200015449524)" fill="none" stroke="#f7e163" stroke-width="3.84" stroke-linecap="round" stroke-linejoin="round" d="M46.08 0L0 0" sodipodi:nodetypes="cc"/><path id="shape11" transform="matrix(1.00000002235174 0 0 1.00000002235174 55.680001244545 84.4800018882752)" fill="none" stroke="#f7e163" stroke-width="5.76" stroke-linecap="round" stroke-linejoin="round" d="M0 0L0 23.04" sodipodi:nodetypes="cc"/><circle id="shape12" transform="matrix(1.00000002235174 0 0 1.00000002235174 59.0399999463558 73.4441207414347)" r="2.4" cx="2.4" cy="2.4" fill="#f7e163" fill-rule="evenodd" stroke-opacity="0" stroke="#000000" stroke-width="0" stroke-linecap="square" stroke-linejoin="bevel"/><path id="shape13" transform="matrix(1.00000002235174 0 0 1.00000002235174 17.28 72.96)" fill="none" stroke="#f7e163" stroke-width="3.84" stroke-linecap="round" stroke-linejoin="round" d="M0 7.68L7.68 0" sodipodi:nodetypes="cc"/><path id="shape14" transform="matrix(1.00000002235174 0 0 1.00000002235174 28.8 72.96)" fill="none" stroke="#f7e163" stroke-width="3.84" stroke-linecap="round" stroke-linejoin="round" d="M0 7.68L7.68 0" sodipodi:nodetypes="cc"/><path id="shape15" transform="matrix(1.00000002235174 0 0 1.00000002235174 101.76 80.6400000000001)" fill="none" stroke="#f7e163" stroke-width="3.84" stroke-linecap="round" stroke-linejoin="round" d="M3.84 0L0 3.84" sodipodi:nodetypes="cc"/><path id="shape0" transform="matrix(1.00000000724533 0 0 1.00000000724533 61.440001373291 30.3434576709962)" fill="none" stroke="#f7e163" stroke-width="3.84" stroke-linecap="round" stroke-linejoin="round" d="M0 0" sodipodi:nodetypes="c"/><path id="shape17" transform="matrix(1.00000002235174 0 0 1.00000002235174 38.4 30.9599999026663)" fill="none" stroke="#f7e163" stroke-width="3.84" stroke-linecap="round" stroke-linejoin="round" d="M0 22.8L23.04 0" sodipodi:nodetypes="cc"/><path id="shape18" transform="matrix(1.00000002235174 0 0 1.00000002235174 61.44 30.72)" fill="none" stroke="#f7e163" stroke-width="3.84" stroke-linecap="round" stroke-linejoin="round" d="M0 23.16L23.04 0" sodipodi:nodetypes="cc"/><path id="shape0" transform="translate(7.55190074733606, 53.7596471257761)" fill="none" stroke="#f7e163" stroke-width="7.68" stroke-linecap="square" stroke-linejoin="bevel" d="M30.8481 61.4404L7.8081 61.4404C2.6881 61.4404 0.128099 58.8804 0.128099 53.7604C0.128099 48.6404 0.0853995 33.2804 0 7.68035C0.11423 2.56035 2.71693 0.000352874 7.8081 0.000352874C12.8993 0.000352874 20.5793 0.000352874 30.8481 0.000352874C36.0048 -0.0345888 38.5648 2.52541 38.5281 7.68035C38.4914 12.8353 38.4914 28.1953 38.5281 53.7604C38.5281 58.8804 35.9681 61.4404 30.8481 61.4404Z" sodipodi:nodetypes="cczczczcc"/><path id="shape1" transform="translate(15.36, 15.36)" fill="none" stroke="#f7e163" stroke-width="7.68" stroke-linecap="square" stroke-linejoin="bevel" d="M0 38.4L0 7.68C0 2.56 2.56 0 7.68 0C12.8 0 38.4 0 84.48 0C89.6 0 92.16 2.56 92.16 7.68C92.16 12.8 92.16 25.6 92.16 46.08" sodipodi:nodetypes="cczczc"/><path id="shape2" transform="translate(92.0381799352893, 61.44)" fill="none" stroke="#f7e163" stroke-width="7.68" stroke-linecap="square" stroke-linejoin="bevel" d="M7.68182 53.76L15.3618 53.76C20.4818 53.76 23.0418 51.2 23.0418 46.08C23.0418 40.96 23.0418 28.16 23.0418 7.68C23.0468 2.56 20.4893 0 15.3693 0C10.2493 0 7.68433 0 7.67433 0C2.47932 0.0799968 -0.0781834 2.64 0.00182006 7.68C0.0818235 12.72 0.0818235 25.52 0.00182006 46.08C0.00182006 51.2 2.56182 53.76 7.68182 53.76Z" sodipodi:nodetypes="cczczczcc"/>
</svg>
