<?xml version="1.0" standalone="no"?>
<!DOCTYPE svg PUBLIC "-//W3C//DTD SVG 20010904//EN" "http://www.w3.org/TR/2001/REC-SVG-20010904/DTD/svg10.dtd">
<!-- Created using Krita: https://krita.org -->
<svg xmlns="http://www.w3.org/2000/svg" 
    xmlns:xlink="http://www.w3.org/1999/xlink"
    xmlns:krita="http://krita.org/namespaces/svg/krita"
    xmlns:sodipodi="http://sodipodi.sourceforge.net/DTD/sodipodi-0.dtd"
    width="122.88pt"
    height="122.88pt"
    viewBox="0 0 122.88 122.88">
<defs/>
<path id="shape0" transform="matrix(1.0000001117587 0 0 1.0000001117587 30.7199982833868 107.638159154336)" fill="none" stroke="#f7e163" stroke-width="7.68" stroke-linecap="round" stroke-linejoin="round" d="M0 7.56184C10.24 2.60185 20.48 0.0818481 30.72 0.00184624C40.96 -0.0781556 51.2 2.44184 61.44 7.56184" sodipodi:nodetypes="czc"/><path id="shape2" transform="matrix(1.0000001117587 0 0 1.0000001117587 53.7600008583077 84.4800000036344)" fill="none" stroke="#f7e163" stroke-width="7.68" stroke-linecap="round" stroke-linejoin="round" d="M0 0L0 23.04" sodipodi:nodetypes="cc"/><path id="shape3" transform="matrix(1.0000001117587 0 0 1.0000001117587 69.1200025749215 84.4800000036344)" fill="none" stroke="#f7e163" stroke-width="7.68" stroke-linecap="round" stroke-linejoin="round" d="M0 23.04L0 0" sodipodi:nodetypes="cc"/><path id="shape4" transform="matrix(1.0000001117587 0 0 1.0000001117587 99.8400060081493 53.7599965704066)" fill="none" stroke="#f7e163" stroke-width="5.76" stroke-linecap="round" stroke-linejoin="round" d="M0 15.36L0 0" sodipodi:nodetypes="cc"/><path id="shape5" transform="matrix(1.0000001117587 0 0 1.0000001117587 84.4800042915354 38.3999948537927)" fill="none" stroke="#f7e163" stroke-width="5.76" stroke-linecap="round" stroke-linejoin="round" d="M0 30.72L0 0" sodipodi:nodetypes="cc"/><path id="shape6" transform="matrix(1.0000001117587 0 0 1.0000001117587 69.1200025749215 30.7199939954857)" fill="none" stroke="#f7e163" stroke-width="5.76" stroke-linecap="round" stroke-linejoin="round" d="M0 38.4L0 0" sodipodi:nodetypes="cc"/><path id="shape7" transform="matrix(1.0000001117587 0 0 1.0000001117587 53.7600008583077 61.4399974287135)" fill="none" stroke="#f7e163" stroke-width="5.76" stroke-linecap="round" stroke-linejoin="round" d="M0 7.68L0.0366859 0" sodipodi:nodetypes="cc"/><circle id="shape01" transform="matrix(0.7217110989948 0 0 0.7217110989948 33.5486848855761 28.762528614166)" r="15.36" cx="15.36" cy="15.36" fill="none" stroke="#f7e163" stroke-width="5.76" stroke-linecap="round" stroke-linejoin="round"/><path id="shape02" transform="matrix(0.721711050600306 0 0 0.721711050600306 21.0803425651381 45.3907478749693)" fill="none" stroke="#f7e163" stroke-width="5.76" stroke-linecap="square" stroke-linejoin="bevel" d="M17.2761 0L1.91608 15.36C-0.638694 17.9333 -0.638694 20.4933 1.91608 23.04C4.47086 25.5867 7.03086 25.5867 9.59608 23.04L24.9561 7.68" sodipodi:nodetypes="cczcc"/><path id="shape011" transform="matrix(1.00000004470348 0 0 1.00000004470348 7.67999519348152 15.3599912489036)" fill="none" stroke="#f7e163" stroke-width="7.68" stroke-linecap="square" stroke-linejoin="bevel" d="M7.68 69.12L99.84 69.12C104.96 69.12 107.52 66.56 107.52 61.44C107.52 56.32 107.52 38.4 107.52 7.68C107.52 2.56 104.96 0 99.84 0C94.72 0 64 0 7.68 0C2.56 0 0 2.56 0 7.68C0 12.8 0 30.72 0 61.44C0 66.56 2.56 69.12 7.68 69.12Z" sodipodi:nodetypes="cczczczcc"/>
</svg>
