<?xml version="1.0" standalone="no"?>
<!DOCTYPE svg PUBLIC "-//W3C//DTD SVG 20010904//EN" "http://www.w3.org/TR/2001/REC-SVG-20010904/DTD/svg10.dtd">
<!-- Created using Krita: https://krita.org -->
<svg xmlns="http://www.w3.org/2000/svg" 
    xmlns:xlink="http://www.w3.org/1999/xlink"
    xmlns:krita="http://krita.org/namespaces/svg/krita"
    xmlns:sodipodi="http://sodipodi.sourceforge.net/DTD/sodipodi-0.dtd"
    width="122.88pt"
    height="122.88pt"
    viewBox="0 0 122.88 122.88">
<defs/>
<circle id="shape0" transform="matrix(1.08210356379174 0 0 1.08210356379174 73.6472257253181 73.6402590086285)" r="15.36" cx="15.36" cy="15.36" fill="none" stroke="#f7e163" stroke-width="7.68" stroke-linecap="round" stroke-linejoin="round"/><path id="shape1" transform="matrix(1.08210356379174 0 0 1.08210356379174 90.2683364651591 65.4215231732309)" fill="none" stroke="#f7e163" stroke-width="7.68" stroke-linecap="round" stroke-linejoin="round" d="M0 7.68L0 0" sodipodi:nodetypes="cc"/><path id="shape2" transform="matrix(1.08210356379174 0 0 1.08210356379174 106.889447205 90.3531892829924)" fill="none" stroke="#f7e163" stroke-width="7.68" stroke-linecap="round" stroke-linejoin="round" d="M0 0L7.68 0" sodipodi:nodetypes="cc"/><path id="shape3" transform="matrix(1.08210356379174 0 0 1.08210356379174 90.2683364651591 106.974300022834)" fill="none" stroke="#f7e163" stroke-width="7.68" stroke-linecap="round" stroke-linejoin="round" d="M0 0L0 7.68" sodipodi:nodetypes="cc"/><path id="shape4" transform="matrix(1.08210356379174 0 0 1.08210356379174 65.3366703553976 90.3531892829924)" fill="none" stroke="#f7e163" stroke-width="7.68" stroke-linecap="round" stroke-linejoin="round" d="M7.68 0L0 0" sodipodi:nodetypes="cc"/><path id="shape01" transform="matrix(0.764829696614982 0.765495602020718 -0.765495602020718 0.764829696614982 107.905355135718 72.6396935384621)" fill="none" stroke="#f7e163" stroke-width="7.68" stroke-linecap="round" stroke-linejoin="round" d="M0 7.68L0 0" sodipodi:nodetypes="cc"/><path id="shape11" transform="matrix(0.764829696614982 0.765495602020718 -0.765495602020718 0.764829696614982 102.016120605166 102.019382195509)" fill="none" stroke="#f7e163" stroke-width="7.68" stroke-linecap="round" stroke-linejoin="round" d="M0 0L7.68 0" sodipodi:nodetypes="cc"/><path id="shape21" transform="matrix(0.764829696614982 0.765495602020718 -0.765495602020718 0.764829696614982 78.5103240181228 102.009153888477)" fill="none" stroke="#f7e163" stroke-width="7.68" stroke-linecap="round" stroke-linejoin="round" d="M0 0L0 7.68" sodipodi:nodetypes="cc"/><path id="shape31" transform="matrix(0.764829696614982 0.765495602020718 -0.765495602020718 0.764829696614982 72.6466602551514 72.6243510779138)" fill="none" stroke="#f7e163" stroke-width="7.68" stroke-linecap="round" stroke-linejoin="round" d="M7.68 0L0 0" sodipodi:nodetypes="cc"/><path id="shape5" transform="matrix(1.00000002235174 0 0 1.00000002235174 7.68000017166138 69.070110236553)" fill="none" stroke="#f7e163" stroke-width="7.68" stroke-linecap="round" stroke-linejoin="round" d="M53.76 38.3536L0 38.4499L0 30.7699C4.81097e-15 10.2235 17.92 -0.0331269 53.76 8.03747e-05" sodipodi:nodetypes="cccc"/><circle id="shape6" transform="matrix(1.00000002235174 0 0 1.00000002235174 38.1600008529425 7.68000017166138)" r="23.28" cx="23.28" cy="23.28" fill="none" stroke="#f7e163" stroke-width="7.68" stroke-linecap="round" stroke-linejoin="round"/>
</svg>
