<?xml version="1.0" standalone="no"?>
<!DOCTYPE svg PUBLIC "-//W3C//DTD SVG 20010904//EN" "http://www.w3.org/TR/2001/REC-SVG-20010904/DTD/svg10.dtd">
<!-- Created using Krita: https://krita.org -->
<svg xmlns="http://www.w3.org/2000/svg" 
    xmlns:xlink="http://www.w3.org/1999/xlink"
    xmlns:krita="http://krita.org/namespaces/svg/krita"
    xmlns:sodipodi="http://sodipodi.sourceforge.net/DTD/sodipodi-0.dtd"
    width="122.88pt"
    height="122.88pt"
    viewBox="0 0 122.88 122.88">
<defs/>
<path id="shape0" transform="matrix(1.0000001117587 0 0 1.0000001117587 7.67999999999999 7.81028231555067)" fill="none" stroke="#f7e163" stroke-width="7.68" stroke-linecap="round" stroke-linejoin="miter" stroke-miterlimit="0" d="M69.1027 0C81.7147 0 91.987 10.1826 92.137 22.7494C92.077 23.2144 92.0319 23.6792 92.017 24.1591L91.8219 29.7977L97.1606 31.6572C103.339 33.809 107.493 39.6052 107.493 46.0685C107.493 54.5415 100.61 61.4247 92.137 61.4247L15.3562 61.4247C6.89084 61.4247 0 54.5413 0 46.0685C0 37.6855 5.36571 28.5173 13.7185 28.3824C14.0784 28.435 14.9584 28.4447 15.3331 28.4673L20.9734 29.1037L23.6038 25.1156C25.7633 18.9222 31.9271 15.3562 38.3904 15.3562C39.1402 15.3562 39.9651 15.4461 41.0749 15.6412L46.451 16.6084L49.1277 11.847C53.2367 4.54398 60.8848 0 69.1027 0" sodipodi:nodetypes="cccccccccccccccccc"/><ellipse id="shape1" transform="matrix(1.0000001117587 0 0 1.0000001117587 53.7331490137869 100.079998310208)" rx="7.68" ry="7.55999999999999" cx="7.68" cy="7.55999999999999" fill="none" stroke="#f7e163" stroke-width="3.84" stroke-linecap="round" stroke-linejoin="miter" stroke-miterlimit="0"/><ellipse id="shape01" transform="matrix(1.00000009513514 0 0 1.00000009513514 84.4531525746835 92.4102918960121)" rx="7.68" ry="7.55999999999999" cx="7.68" cy="7.55999999999999" fill="none" stroke="#f7e163" stroke-width="3.84" stroke-linecap="round" stroke-linejoin="miter" stroke-miterlimit="0"/><ellipse id="shape011" transform="matrix(1.00000009513514 0 0 1.00000009513514 23.013145708228 92.2902918870786)" rx="7.68" ry="7.55999999999999" cx="7.68" cy="7.55999999999999" fill="none" stroke="#f7e163" stroke-width="3.84" stroke-linecap="round" stroke-linejoin="miter" stroke-miterlimit="0"/><path id="shape2" transform="matrix(1.0000001117587 0 0 0.7511592405566 30.693146438866 69.2502845471486)" fill="none" stroke="#f7e163" stroke-width="3.84" stroke-linecap="square" stroke-linejoin="miter" stroke-miterlimit="0" d="M0 0L0 30.84" sodipodi:nodetypes="cc"/><path id="shape3" transform="matrix(1.0000001117587 0 0 0.66957285175451 61.4131498720937 69.1302865940321)" fill="none" stroke="#f7e163" stroke-width="3.84" stroke-linecap="square" stroke-linejoin="miter" stroke-miterlimit="0" d="M0 0L0 46.1221" sodipodi:nodetypes="cc"/><path id="shape4" transform="matrix(1.0000001117587 0 0 0.75308635280627 92.1331533053216 69.2502845471486)" fill="none" stroke="#f7e163" stroke-width="3.84" stroke-linecap="square" stroke-linejoin="miter" stroke-miterlimit="0" d="M0 0L0 31.0807" sodipodi:nodetypes="cc"/><ellipse id="shape02" transform="matrix(1.00000008762559 0 0 1.00000008762559 55.6458483660566 40.6302864715986)" rx="5.7673010006741" ry="5.67718692253856" cx="5.7673010006741" cy="5.67718692253856" fill="none" stroke="#f7e163" stroke-width="4.8" stroke-linecap="round" stroke-linejoin="miter" stroke-miterlimit="0"/><ellipse id="shape03" transform="matrix(1.00000008491122 0 0 1.00000008491122 24.9545507298091 48.1223223436384)" rx="5.7673010006741" ry="5.67718692253856" cx="5.7673010006741" cy="5.67718692253856" fill="none" stroke="#f7e163" stroke-width="4.8" stroke-linecap="round" stroke-linejoin="miter" stroke-miterlimit="0"/><ellipse id="shape04" transform="matrix(1.00000008491122 0 0 1.00000008491122 86.3375730552631 48.2159618778846)" rx="5.7673010006741" ry="5.67718692253856" cx="5.7673010006741" cy="5.67718692253856" fill="none" stroke="#f7e163" stroke-width="4.8" stroke-linecap="round" stroke-linejoin="miter" stroke-miterlimit="0"/><path id="shape011" transform="matrix(1.00000004470348 0 0 0.500000022351742 30.6931443789293 61.5702842038258)" fill="none" stroke="#f7e163" stroke-width="5.76" stroke-linecap="square" stroke-linejoin="miter" stroke-miterlimit="2" d="M0 15.36L0 0" sodipodi:nodetypes="cc"/><path id="shape11" transform="matrix(1.00000004470348 0 0 0.678756539450589 61.4131457522204 53.8902847085351)" fill="none" stroke="#f7e163" stroke-width="5.76" stroke-linecap="square" stroke-linejoin="miter" stroke-miterlimit="2" d="M0 23.16L0 0" sodipodi:nodetypes="cc"/><path id="shape21" transform="matrix(1.00000004470348 0 0 0.500000022351742 92.1331471255114 61.5702842038258)" fill="none" stroke="#f7e163" stroke-width="5.76" stroke-linecap="square" stroke-linejoin="miter" stroke-miterlimit="2" d="M0 15.36L0 0" sodipodi:nodetypes="cc"/>
</svg>
