<?xml version="1.0" standalone="no"?>
<!DOCTYPE svg PUBLIC "-//W3C//DTD SVG 20010904//EN" "http://www.w3.org/TR/2001/REC-SVG-20010904/DTD/svg10.dtd">
<!-- Created using Krita: https://krita.org -->
<svg xmlns="http://www.w3.org/2000/svg" 
    xmlns:xlink="http://www.w3.org/1999/xlink"
    xmlns:krita="http://krita.org/namespaces/svg/krita"
    xmlns:sodipodi="http://sodipodi.sourceforge.net/DTD/sodipodi-0.dtd"
    width="122.88pt"
    height="122.88pt"
    viewBox="0 0 122.88 122.88">
<defs/>
<path id="shape1" transform="matrix(1.00000006705522 0 0 1.00000006705522 84.4464997294751 84.4800056648257)" fill="none" stroke="#f7e163" stroke-width="3.84" stroke-linecap="round" stroke-linejoin="round" d="M0 7.68L7.68 0" sodipodi:nodetypes="cc"/><path id="shape2" transform="matrix(1.00000006705522 0 0 1.00000006705522 92.1265002444593 84.4800056648257)" fill="none" stroke="#f7e163" stroke-width="3.84" stroke-linecap="round" stroke-linejoin="round" d="M0 0L7.68 7.68" sodipodi:nodetypes="cc"/><path id="shape3" transform="matrix(1.00000006705522 0 0 1.00000006705522 99.8065007594434 69.1200046348574)" fill="none" stroke="#f7e163" stroke-width="3.84" stroke-linecap="round" stroke-linejoin="round" d="M0 23.04L0 0" sodipodi:nodetypes="cc"/><path id="shape4" transform="matrix(1.00000006705522 0 0 1.00000006705522 84.4464997294751 69.1200046348574)" fill="none" stroke="#f7e163" stroke-width="3.84" stroke-linecap="round" stroke-linejoin="round" d="M0 23.04L0 0" sodipodi:nodetypes="cc"/><circle id="shape6" transform="matrix(1.00000006705522 0 0 1.00000006705522 76.8000051498415 38.4000025749207)" r="15.36" cx="15.36" cy="15.36" fill="none" stroke="#f7e163" stroke-width="3.84" stroke-linecap="round" stroke-linejoin="round"/><path id="shape10" transform="matrix(1.00000006705522 0 0 1.00000006705522 30.7200020599366 46.2000069705223)" fill="none" stroke="#f7e163" stroke-width="3.84" stroke-linecap="round" stroke-linejoin="round" d="M0 0.119996L30.72 0" sodipodi:nodetypes="cc"/><path id="shape11" transform="matrix(1.00000006705522 0 0 1.00000006705522 30.5999989619851 57.6)" fill="none" stroke="#f7e163" stroke-width="3.84" stroke-linecap="round" stroke-linejoin="round" d="M0 0L30.96 0" sodipodi:nodetypes="cc"/><path id="shape12" transform="matrix(1.00000006705522 0 0 1.00000006705522 30.7199989700318 69.12)" fill="none" stroke="#f7e163" stroke-width="3.84" stroke-linecap="round" stroke-linejoin="round" d="M0 0L30.72 0" sodipodi:nodetypes="cc"/><path id="shape01" transform="matrix(1.00000004144312 0 0 1.00000004144312 30.7200030434416 92.1600061798099)" fill="none" stroke="#f7e163" stroke-width="3.84" stroke-linecap="round" stroke-linejoin="round" d="M0 0L15.36 0" sodipodi:nodetypes="cc"/><path id="shape0" transform="translate(15.36, 7.68)" fill="none" stroke="#f7e163" stroke-width="7.68" stroke-linecap="round" stroke-linejoin="round" d="M76.8 19.2L76.8 7.68C76.8 2.56 74.24 0 69.12 0C64 0 48.64 0 23.04 0L1.02997e-06 23.04C3.43323e-07 64 0 87.04 0 92.16C0 97.28 2.56 99.84 7.68 99.84C43.52 99.84 64 99.84 69.12 99.84C74.24 99.84 76.8 97.28 76.8 92.16" sodipodi:nodetypes="cczcczczc"/><path id="shape1" transform="translate(15.36, 7.68)" fill="none" stroke="#f7e163" stroke-width="7.68" stroke-linecap="round" stroke-linejoin="round" d="M0 23.04L15.36 23.04C20.48 23.04 23.04 20.48 23.04 15.36C23.04 10.24 23.04 5.12 23.04 0" sodipodi:nodetypes="cczc"/><path id="shape2" transform="translate(49.92, 19.2)" fill="none" stroke="#f7e163" stroke-width="3.84" stroke-linecap="round" stroke-linejoin="round" d="M3.84 7.68C1.28 7.68 7.10543e-15 6.4 7.10543e-15 3.84C7.10543e-15 1.28 1.28 0 3.84 0L26.88 0C29.44 0 30.72 1.28 30.72 3.84C30.72 6.4 29.44 7.68 26.88 7.68L11.52 7.6875" sodipodi:nodetypes="czcczcc"/><path id="shape111" transform="matrix(1.00000003756014 0 0 1.00000003756014 30.5999994185691 80.64)" fill="none" stroke="#f7e163" stroke-width="3.84" stroke-linecap="round" stroke-linejoin="round" d="M0 0L30.96 0" sodipodi:nodetypes="cc"/>
</svg>
