<?xml version="1.0" standalone="no"?>
<!DOCTYPE svg PUBLIC "-//W3C//DTD SVG 20010904//EN" "http://www.w3.org/TR/2001/REC-SVG-20010904/DTD/svg10.dtd">
<!-- Created using Krita: https://krita.org -->
<svg xmlns="http://www.w3.org/2000/svg" 
    xmlns:xlink="http://www.w3.org/1999/xlink"
    xmlns:krita="http://krita.org/namespaces/svg/krita"
    xmlns:sodipodi="http://sodipodi.sourceforge.net/DTD/sodipodi-0.dtd"
    width="122.88pt"
    height="122.88pt"
    viewBox="0 0 122.88 122.88">
<defs/>
<path id="shape1" transform="matrix(0.928571394576888 0 0 0.928571394576888 25.7828593911103 40.0457160118113)" fill="#aa9b45" fill-rule="evenodd" stroke="#aa9b45" stroke-width="9.6" stroke-linecap="round" stroke-linejoin="round" d="M76.8 61.44L0 61.44L15.3562 23.04L30.72 46.08L53.76 0C64.512 23.04 72.192 38.4 76.8 46.08C76.7988 53.7523 76.56 46.08 76.8 61.44Z" sodipodi:nodetypes="ccccccc"/><rect id="shape0" transform="matrix(0.928571394576888 0 0 0.928571394576888 11.5199999749039 11.5199999749039)" fill="none" stroke="#f7e163" stroke-width="9.6" stroke-linecap="round" stroke-linejoin="round" width="107.52" height="107.52"/><circle id="shape2" transform="matrix(0.928571394576888 0 0 0.928571394576888 32.9142849059554 25.7828565956049)" r="7.68" cx="7.68" cy="7.68" fill="#aa9b45" fill-rule="evenodd" stroke="#aa9b45" stroke-width="9.6" stroke-linecap="round" stroke-linejoin="round"/><path id="shape0" transform="matrix(0.928571422576742 0 0 0.928571422576742 29.3485715034162 29.3485715034162)" fill="#f7e163" fill-rule="evenodd" stroke="#f7e163" stroke-width="9.6" stroke-linecap="round" stroke-linejoin="round" d="M0 69.12L69.12 0" sodipodi:nodetypes="cc"/><path id="shape1" transform="matrix(0.928571422576742 0 0 0.928571422576742 29.3485715034162 29.3485715034162)" fill="#f7e163" fill-rule="evenodd" stroke="#f7e163" stroke-width="9.6" stroke-linecap="round" stroke-linejoin="round" d="M0 0L69.12 69.12" sodipodi:nodetypes="cc"/>
</svg>
