<?xml version="1.0" standalone="no"?>
<!DOCTYPE svg PUBLIC "-//W3C//DTD SVG 20010904//EN" "http://www.w3.org/TR/2001/REC-SVG-20010904/DTD/svg10.dtd">
<!-- Created using Krita: https://krita.org -->
<svg xmlns="http://www.w3.org/2000/svg" 
    xmlns:xlink="http://www.w3.org/1999/xlink"
    xmlns:krita="http://krita.org/namespaces/svg/krita"
    xmlns:sodipodi="http://sodipodi.sourceforge.net/DTD/sodipodi-0.dtd"
    width="122.88pt"
    height="122.88pt"
    viewBox="0 0 122.88 122.88">
<defs/>
<path id="shape0" transform="translate(19.2, 7.68)" fill="none" stroke="#f7e163" stroke-width="7.68" stroke-linecap="round" stroke-linejoin="round" d="M0 0L0 30.72" sodipodi:nodetypes="cc"/><path id="shape1" transform="translate(19.2, 23.04)" fill="none" stroke="#f7e163" stroke-width="7.68" stroke-linecap="round" stroke-linejoin="round" d="M0 15.36L30.72 0" sodipodi:nodetypes="cc"/><path id="shape2" transform="translate(19.2, 7.68)" fill="none" stroke="#f7e163" stroke-width="7.68" stroke-linecap="round" stroke-linejoin="round" d="M30.72 15.36L0 0" sodipodi:nodetypes="cc"/><path id="shape3" transform="matrix(0.916666666666667 0 0 1 61.44 22.9102590576315)" fill="none" stroke="#f7e163" stroke-width="7.68" stroke-linecap="round" stroke-linejoin="round" d="M0 0L46.08 0.129741" sodipodi:nodetypes="cc"/><path id="shape4" transform="matrix(0.916666666666667 0 0 1 40.32 46.08)" fill="none" stroke="#f7e163" stroke-width="7.68" stroke-linecap="round" stroke-linejoin="round" d="M69.12 0L0 0" sodipodi:nodetypes="cc"/><path id="shape5" transform="matrix(0.916666666666667 0 0 1 19.2 69.12)" fill="none" stroke="#f7e163" stroke-width="7.68" stroke-linecap="round" stroke-linejoin="round" d="M92.16 0L0 0" sodipodi:nodetypes="cc"/><path id="shape6" transform="matrix(0.916666666666667 0 0 1 19.2 92.16)" fill="none" stroke="#f7e163" stroke-width="7.68" stroke-linecap="round" stroke-linejoin="round" d="M0 0L92.16 0" sodipodi:nodetypes="cc"/><path id="shape7" transform="matrix(0.916666666666667 0 0 1 19.2 115.2)" fill="none" stroke="#f7e163" stroke-width="7.68" stroke-linecap="round" stroke-linejoin="round" d="M92.16 0L0 0" sodipodi:nodetypes="cc"/>
</svg>
