<?xml version="1.0" standalone="no"?>
<!DOCTYPE svg PUBLIC "-//W3C//DTD SVG 20010904//EN" "http://www.w3.org/TR/2001/REC-SVG-20010904/DTD/svg10.dtd">
<!-- Created using Krita: https://krita.org -->
<svg xmlns="http://www.w3.org/2000/svg" 
    xmlns:xlink="http://www.w3.org/1999/xlink"
    xmlns:krita="http://krita.org/namespaces/svg/krita"
    xmlns:sodipodi="http://sodipodi.sourceforge.net/DTD/sodipodi-0.dtd"
    width="122.88pt"
    height="122.88pt"
    viewBox="0 0 122.88 122.88">
<defs/>
<path id="shape0" transform="matrix(0 0.999999969846311 -0.999999969846311 0 38.4 53.76)" fill="none" stroke="#f7e163" stroke-width="9.6" stroke-linecap="round" stroke-linejoin="round" d="M23.04 15.36L0 0" sodipodi:nodetypes="cc"/><path id="shape1" transform="matrix(0 0.999999969846311 -0.999999969846311 0 23.04 53.76)" fill="none" stroke="#f7e163" stroke-width="9.6" stroke-linecap="round" stroke-linejoin="round" d="M23.04 0L0 15.36" sodipodi:nodetypes="cc"/><path id="shape0" transform="translate(23.04, 23.04)" fill="none" stroke="#f7e163" stroke-width="9.6" stroke-linecap="round" stroke-linejoin="round" d="M0 46.08L0.00814537 38.4C0.00271512 12.805 12.8 0.0075024 38.4 0.0075013C43.52 0.0075041 56.32 0.00500367 76.8 0" sodipodi:nodetypes="cccc"/><path id="shape01" transform="matrix(0 -0.999999941582353 0.999999941582353 0 84.4799982634623 69.1199986540574)" fill="none" stroke="#f7e163" stroke-width="9.6" stroke-linecap="round" stroke-linejoin="round" d="M23.04 15.36L0 0" sodipodi:nodetypes="cc"/><path id="shape11" transform="matrix(0 -0.999999941582353 0.999999941582353 0 99.8399978293279 69.1199986540574)" fill="none" stroke="#f7e163" stroke-width="9.6" stroke-linecap="round" stroke-linejoin="round" d="M23.04 0L0 15.36" sodipodi:nodetypes="cc"/><path id="shape02" transform="matrix(-0.999999971736041 0 0 -0.999999971736041 99.8399978293279 99.8399977857886)" fill="none" stroke="#f7e163" stroke-width="9.6" stroke-linecap="round" stroke-linejoin="round" d="M0 46.08L0.00814537 38.4C0.00271512 12.805 12.8 0.0075024 38.4 0.0075013C43.52 0.0075041 56.32 0.00500367 76.8 0" sodipodi:nodetypes="cccc"/>
</svg>
