<?xml version="1.0" standalone="no"?>
<!DOCTYPE svg PUBLIC "-//W3C//DTD SVG 20010904//EN" "http://www.w3.org/TR/2001/REC-SVG-20010904/DTD/svg10.dtd">
<!-- Created using Krita: https://krita.org -->
<svg xmlns="http://www.w3.org/2000/svg" 
    xmlns:xlink="http://www.w3.org/1999/xlink"
    xmlns:krita="http://krita.org/namespaces/svg/krita"
    xmlns:sodipodi="http://sodipodi.sourceforge.net/DTD/sodipodi-0.dtd"
    width="122.88pt"
    height="122.88pt"
    viewBox="0 0 122.88 122.88">
<defs/>
<path id="shape0" transform="translate(7.68, 23.04)" fill="none" stroke="#f7e163" stroke-width="9.6" stroke-linecap="round" stroke-linejoin="round" d="M0 3.05104e-14L15.36 3.05104e-14C29.5211 -3.99169e-07 39.7655 3.91675 46.0931 11.7503M61.442 65.0684C67.7708 72.8895 78.0101 76.8 92.16 76.8L107.52 76.8" sodipodi:nodetypes="cccccc"/><path id="shape1" transform="translate(92.16, 84.48)" fill="none" stroke="#f7e163" stroke-width="9.6" stroke-linecap="round" stroke-linejoin="round" d="M23.04 15.36L0 0" sodipodi:nodetypes="cc"/><path id="shape2" transform="translate(92.16, 99.84)" fill="none" stroke="#f7e163" stroke-width="9.6" stroke-linecap="round" stroke-linejoin="round" d="M23.04 0L0 15.36" sodipodi:nodetypes="cc"/><path id="shape0" transform="matrix(0.999999969846311 0 0 -0.999999969846311 7.68000324212459 99.839997221036)" fill="none" stroke="#f7e163" stroke-width="9.6" stroke-linecap="round" stroke-linejoin="round" d="M0 3.05103e-14L15.36 3.05103e-14C40.96 -7.21603e-07 53.76 12.8 53.76 38.4C53.76 64 66.56 76.8 92.16 76.8L107.52 76.8" sodipodi:nodetypes="ccscc"/><path id="shape1" transform="matrix(0.999999969846311 0 0 -0.999999969846311 92.160000694741 38.3999990736787)" fill="none" stroke="#f7e163" stroke-width="9.6" stroke-linecap="round" stroke-linejoin="round" d="M23.04 15.36L0 0" sodipodi:nodetypes="cc"/><path id="shape2" transform="matrix(0.999999969846311 0 0 -0.999999969846311 92.160000694741 23.0399995368393)" fill="none" stroke="#f7e163" stroke-width="9.6" stroke-linecap="round" stroke-linejoin="round" d="M23.04 0L0 15.36" sodipodi:nodetypes="cc"/>
</svg>
