<?xml version="1.0" standalone="no"?>
<!DOCTYPE svg PUBLIC "-//W3C//DTD SVG 20010904//EN" "http://www.w3.org/TR/2001/REC-SVG-20010904/DTD/svg10.dtd">
<!-- Created using Krita: https://krita.org -->
<svg xmlns="http://www.w3.org/2000/svg" 
    xmlns:xlink="http://www.w3.org/1999/xlink"
    xmlns:krita="http://krita.org/namespaces/svg/krita"
    xmlns:sodipodi="http://sodipodi.sourceforge.net/DTD/sodipodi-0.dtd"
    width="122.88pt"
    height="122.88pt"
    viewBox="0 0 122.88 122.88">
<defs/>
<path id="shape0" transform="matrix(1.00000002235174 0 0 1.00000002235174 7.68000017166138 23.0400000133784)" fill="none" stroke="#f7e163" stroke-width="7.68" stroke-linecap="round" stroke-linejoin="round" d="M0 0L107.52 0" sodipodi:nodetypes="cc"/><path id="shape1" transform="matrix(1.00000002235174 0 0 1.00000002235174 53.7600012016297 7.67999967005569)" fill="none" stroke="#f7e163" stroke-width="7.68" stroke-linecap="round" stroke-linejoin="round" d="M0 0L15.36 0" sodipodi:nodetypes="cc"/><path id="shape2" transform="matrix(1.00000002235174 0 0 1.00000002235174 69.1200015449524 7.67999967005569)" fill="none" stroke="#f7e163" stroke-width="7.68" stroke-linecap="round" stroke-linejoin="round" d="M0 0L23.04 15.36" sodipodi:nodetypes="cc"/><path id="shape3" transform="matrix(1.00000002235174 0 0 1.00000002235174 30.7200006866455 7.67999967005569)" fill="none" stroke="#f7e163" stroke-width="7.68" stroke-linecap="round" stroke-linejoin="round" d="M23.04 0L0 15.36" sodipodi:nodetypes="cc"/><path id="shape4" transform="matrix(1.00000002235174 0 0 1.00000002235174 23.0400005149841 38.4000008583069)" fill="none" stroke="#f7e163" stroke-width="7.68" stroke-linecap="round" stroke-linejoin="round" d="M0 0L76.8 0" sodipodi:nodetypes="cc"/><path id="shape5" transform="matrix(1.00000002235174 0 0 1.00000002235174 84.4800018882752 38.4000008583069)" fill="none" stroke="#f7e163" stroke-width="7.68" stroke-linecap="round" stroke-linejoin="round" d="M15.36 0L0 69.12" sodipodi:nodetypes="cc"/><path id="shape6" transform="matrix(1.00000002235174 0 0 1.00000002235174 38.4000008583069 107.520002403259)" fill="none" stroke="#f7e163" stroke-width="7.68" stroke-linecap="round" stroke-linejoin="round" d="M46.08 0L0 0" sodipodi:nodetypes="cc"/><path id="shape7" transform="matrix(1.00000002235174 0 0 1.00000002235174 23.0400005149841 38.4000008583069)" fill="none" stroke="#f7e163" stroke-width="7.68" stroke-linecap="round" stroke-linejoin="round" d="M15.36 69.12L0 0" sodipodi:nodetypes="cc"/><path id="shape8" transform="matrix(1.00000002235174 0 0 1.00000002235174 61.440001373291 54.1200011778253)" fill="none" stroke="#f7e163" stroke-width="3.84" stroke-linecap="round" stroke-linejoin="round" d="M0 38.4L0 0" sodipodi:nodetypes="cc"/><path id="shape9" transform="matrix(1.00000002235174 0 0 1.00000002235174 42.2400009441376 53.7600012016297)" fill="none" stroke="#f7e163" stroke-width="3.84" stroke-linecap="round" stroke-linejoin="round" d="M7.68 38.4L0 0" sodipodi:nodetypes="cc"/><path id="shape10" transform="matrix(1.00000002235174 0 0 1.00000002235174 72.9600016307831 53.7600012016297)" fill="none" stroke="#f7e163" stroke-width="3.84" stroke-linecap="round" stroke-linejoin="round" d="M0 38.4L7.68 0" sodipodi:nodetypes="cc"/>
</svg>
