<?xml version="1.0" standalone="no"?>
<!DOCTYPE svg PUBLIC "-//W3C//DTD SVG 20010904//EN" "http://www.w3.org/TR/2001/REC-SVG-20010904/DTD/svg10.dtd">
<!-- Created using Krita: https://krita.org -->
<svg xmlns="http://www.w3.org/2000/svg" 
    xmlns:xlink="http://www.w3.org/1999/xlink"
    xmlns:krita="http://krita.org/namespaces/svg/krita"
    xmlns:sodipodi="http://sodipodi.sourceforge.net/DTD/sodipodi-0.dtd"
    width="122.88pt"
    height="122.88pt"
    viewBox="0 0 122.88 122.88">
<defs/>
<path id="shape0" fill="#f7e163" fill-rule="evenodd" stroke="none" stroke-width="2.88" stroke-linecap="round" stroke-linejoin="round" d="M119.04 61.4475L119.021 59.9375L118.963 58.4371L118.867 56.9467L118.733 55.4668L118.563 53.998L118.355 52.5406L118.112 51.0952L117.833 49.6622L117.519 48.2421L117.17 46.8353L116.787 45.4424L116.37 44.0639L115.92 42.7001L115.437 41.3516L114.922 40.0189L114.374 38.7023L113.796 37.4025L113.186 36.1198L112.546 34.8547L111.876 33.6078L111.177 32.3795L110.448 31.1702L109.692 29.9804L108.906 28.8107L108.094 27.6615L107.254 26.5332L106.388 25.4263L105.495 24.3414L104.577 23.2788L103.633 22.2391L102.665 21.2227L101.672 20.2302L100.656 19.2619L99.6162 18.3183L98.5536 17.4L97.4687 16.5074L96.3618 15.641L95.2335 14.8012L94.0843 13.9886L92.9146 13.2035L91.7248 12.4465L90.5155 11.7181L89.2872 11.0186L88.0403 10.3487L86.7752 9.70877L85.4925 9.09926L84.1927 8.52067L82.8761 7.97347L81.5434 7.45813L80.1949 6.97514L78.8311 6.52496L77.4526 6.10807L76.0597 5.72495L74.6529 5.37606L73.2328 5.06188L71.7998 4.78289L70.3544 4.53956L68.897 4.33237L67.4282 4.16178L65.9483 4.02827L64.4579 3.93233L62.9575 3.87441L61.4475 3.855L59.9375 3.87441L58.4371 3.93233L56.9467 4.02827L55.4668 4.16178L53.998 4.33237L52.5406 4.53956L51.0952 4.78289L49.6622 5.06188L48.2421 5.37606L46.8353 5.72495L45.4424 6.10807L44.0639 6.52496L42.7001 6.97514L41.3516 7.45813L40.0189 7.97347L38.7023 8.52067L37.4025 9.09926L36.1198 9.70877L34.8547 10.3487L33.6078 11.0186L32.3795 11.7181L31.1702 12.4465L29.9804 13.2035L28.8107 13.9886L27.6615 14.8012L26.5332 15.641L25.4263 16.5074L24.3414 17.4L23.2788 18.3183L22.2391 19.2619L21.2227 20.2302L20.2302 21.2227L19.2619 22.2391L18.3183 23.2788L17.4 24.3414L16.5074 25.4263L15.641 26.5332L14.8012 27.6615L13.9886 28.8107L13.2035 29.9804L12.4465 31.1702L11.7181 32.3795L11.0186 33.6078L10.3487 34.8547L9.70877 36.1198L9.09926 37.4025L8.52067 38.7023L7.97347 40.0189L7.45813 41.3516L6.97514 42.7001L6.52496 44.0639L6.10807 45.4424L5.72495 46.8353L5.37606 48.2421L5.06188 49.6622L4.78289 51.0952L4.53956 52.5406L4.33237 53.998L4.16178 55.4668L4.02827 56.9467L3.93233 58.4371L3.87441 59.9375L3.855 61.4475L3.87441 62.9575L3.93233 64.4579L4.02827 65.9483L4.16178 67.4282L4.33237 68.897L4.53956 70.3544L4.78289 71.7998L5.06188 73.2328L5.37606 74.6529L5.72495 76.0597L6.10807 77.4526L6.52496 78.8311L6.97514 80.1949L7.45813 81.5434L7.97347 82.8761L8.52067 84.1927L9.09926 85.4925L9.70877 86.7752L10.3487 88.0403L11.0186 89.2872L11.7181 90.5155L12.4465 91.7248L13.2035 92.9146L13.9886 94.0843L14.8012 95.2335L15.641 96.3618L16.5074 97.4687L17.4 98.5536L18.3183 99.6162L19.2619 100.656L20.2302 101.672L21.2227 102.665L22.2391 103.633L23.2788 104.577L24.3414 105.495L25.4263 106.388L26.5332 107.254L27.6615 108.094L28.8107 108.906L29.9804 109.692L31.1702 110.448L32.3795 111.177L33.6078 111.876L34.8547 112.546L36.1198 113.186L37.4025 113.796L38.7023 114.374L40.0189 114.922L41.3516 115.437L42.7001 115.92L44.0639 116.37L45.4424 116.787L46.8353 117.17L48.2421 117.519L49.6622 117.833L51.0952 118.112L52.5406 118.355L53.998 118.563L55.4668 118.733L56.9467 118.867L58.4371 118.963L59.9375 119.021L61.4475 119.04L62.9575 119.021L64.4579 118.963L65.9483 118.867L67.4282 118.733L68.897 118.563L70.3544 118.355L71.7998 118.112L73.2328 117.833L74.6529 117.519L76.0597 117.17L77.4526 116.787L78.8311 116.37L80.1949 115.92L81.5434 115.437L82.8761 114.922L84.1927 114.374L85.4925 113.796L86.7752 113.186L88.0403 112.546L89.2872 111.876L90.5155 111.177L91.7248 110.448L92.9146 109.692L94.0843 108.906L95.2335 108.094L96.3618 107.254L97.4687 106.388L98.5536 105.495L99.6162 104.577L100.656 103.633L101.672 102.665L102.665 101.672L103.633 100.656L104.577 99.6162L105.495 98.5536L106.388 97.4687L107.254 96.3618L108.094 95.2335L108.906 94.0843L109.692 92.9146L110.448 91.7248L111.177 90.5155L111.876 89.2872L112.546 88.0403L113.186 86.7752L113.796 85.4925L114.374 84.1927L114.922 82.8761L115.437 81.5434L115.92 80.1949L116.37 78.8311L116.787 77.4526L117.17 76.0597L117.519 74.6529L117.833 73.2328L118.112 71.7998L118.355 70.3544L118.563 68.897L118.733 67.4282L118.867 65.9483L118.963 64.4579L119.021 62.9575L119.04 61.4475M19.2 57.5896L19.2146 56.5872L19.2578 55.591L19.3294 54.6012L19.4288 53.6181L19.5558 52.6422L19.7099 51.6737L19.8909 50.7129L20.0982 49.7601L20.3317 48.8157L20.5909 47.8801L20.8753 46.9534L21.1848 46.0361L21.5188 45.1285L21.8771 44.2309L22.2593 43.3435L22.6649 42.4668L23.0936 41.6011L23.5451 40.7466L24.019 39.9038L24.5149 39.0728L25.0325 38.2542L25.5713 37.448L26.131 36.6548L26.7113 35.8748L27.3118 35.1083L27.932 34.3557L28.5717 33.6173L29.2305 32.8933L29.908 32.1842L30.6038 31.4903L31.3176 30.8118L32.049 30.1491L32.7976 29.5025L33.563 28.8723L34.345 28.2589L35.1431 27.6626L35.9569 27.0837L36.7861 26.5225L37.6304 25.9794L38.4892 25.4547L39.3624 24.9486L40.2495 24.4615L41.1501 23.9938L42.0639 23.5458L42.9905 23.1177L43.9296 22.71L44.8807 22.3228L45.8436 21.9566L46.8177 21.6117L47.8029 21.2884L48.7986 20.987L49.8046 20.7079L50.8204 20.4513L51.8457 20.2175L52.8801 20.007L53.9233 19.82L54.9749 19.6569L56.0345 19.518L57.1018 19.4035L58.1763 19.3139L59.2578 19.2494L60.3458 19.2103L61.44 19.1971L62.5342 19.2099L63.6222 19.2485L64.7037 19.3126L65.7782 19.4019L66.8455 19.5161L67.9051 19.6548L68.9567 19.8178L69.9999 20.0046L71.0344 20.215L72.0598 20.4487L73.0756 20.7052L74.0816 20.9844L75.0774 21.2858L76.0625 21.6092L77.0367 21.9542L77.9996 22.3205L78.9507 22.7078L79.8898 23.1157L80.8165 23.544L81.7303 23.9923L82.631 24.4602L83.5181 24.9475L84.3913 25.4538L85.2502 25.9789L86.0945 26.5223L86.9237 27.0837L87.7376 27.6629L88.5357 28.2596L89.3177 28.8733L90.0832 29.5037L90.8318 30.1506L91.5632 30.8136L92.277 31.4924L92.9729 32.1867L93.6504 32.8961L94.3091 33.6203L94.9489 34.359L95.5691 35.1119L96.1696 35.8786L96.7499 36.6588L97.3097 37.4522L97.8485 38.2585L98.366 39.0774L98.8619 39.9084L99.3358 40.7514L99.7873 41.6059L100.216 42.4717L100.622 43.3484L101.004 44.2357L101.362 45.1333L101.696 46.0409L102.005 46.958L102.29 47.8845L102.549 48.8199L102.782 49.764L102.99 50.7165L103.171 51.6769L103.325 52.645L103.452 53.6205L103.551 54.6031L103.622 55.5923L103.666 56.5879L103.68 57.5896L99.8069 57.5896L96.3796 57.5896L91.8649 57.5896L88.32 57.5896L88.3091 57.0407L88.2783 56.492L88.2279 55.944L88.1581 55.3969L88.0694 54.8508L87.9621 54.3062L87.8364 53.7633L87.6928 53.2223L87.5314 52.6835L87.3527 52.1473L87.1569 51.6139L86.9444 51.0835L86.7155 50.5564L86.4705 50.0329L86.2097 49.5134L85.9335 48.9979L85.6422 48.4869L85.3361 47.9807L85.0154 47.4794L84.6807 46.9833L84.3321 46.4928L83.9699 46.0081L83.5946 45.5295L83.2064 45.0572L82.8057 44.5916L82.3927 44.1328L81.9677 43.6813L81.5312 43.2372L81.0835 42.8008L80.6247 42.3724L80.1553 41.9523L79.6757 41.5408L79.186 41.1381L78.6866 40.7444L78.178 40.3602L77.6602 39.9856L77.1338 39.621L76.599 39.2665L76.0561 38.9226L75.5054 38.5893L74.9474 38.2671L74.3822 37.9562L73.8102 37.6569L73.2318 37.3695L72.6473 37.0941L72.0569 36.8312L71.461 36.5809L70.8599 36.3436L70.254 36.1195L69.6435 35.9089L69.0288 35.7121L68.4102 35.5293L67.788 35.3609L67.1626 35.207L66.5342 35.068L65.9032 34.9442L65.27 34.8358L64.6347 34.7431L63.9978 34.6664L63.3595 34.6059L62.7203 34.5619L62.0803 34.5348L61.44 34.5247L60.7997 34.5319L60.1597 34.5565L59.5203 34.598L58.882 34.6562L58.245 34.7308L57.6095 34.8216L56.9761 34.9283L56.3449 35.0505L55.7164 35.1881L55.0907 35.3406L54.4683 35.508L53.8494 35.6897L53.2345 35.8857L52.6237 36.0956L52.0175 36.3191L51.4161 36.556L50.8199 36.8059L50.2292 37.0686L49.6443 37.3438L49.0656 37.6313L48.4933 37.9307L47.9278 38.2418L47.3695 38.5642L46.8185 38.8978L46.2753 39.2422L45.7402 39.5971L45.2134 39.9624L44.6954 40.3376L44.1865 40.7225L43.6868 41.1168L43.1969 41.5203L42.717 41.9327L42.2474 42.3537L41.7885 42.7829L41.3405 43.2202L40.9038 43.6653L40.4788 44.1178L40.0656 44.5776L39.6648 45.0442L39.2765 45.5175L38.9011 45.9971L38.539 46.4828L38.1904 46.9742L37.8557 47.4712L37.5352 47.9735L37.2292 48.4807L36.938 48.9925L36.662 49.5088L36.4014 50.0291L36.1567 50.5533L35.9281 51.0811L35.716 51.6121L35.5206 52.1462L35.3423 52.6829L35.1814 53.2221L35.0383 53.7634L34.9132 54.3066L34.8065 54.8514L34.7185 55.3975L34.6495 55.9447L34.5999 56.4926L34.57 57.041L34.56 57.5896L34.4495 57.5937L34.3347 57.5978L34.2156 57.6017L34.0922 57.6054L33.9644 57.6091L33.8324 57.6126L33.6961 57.6159L33.5555 57.6191L33.4106 57.6222L33.2614 57.6252L33.1079 57.628L32.9501 57.6307L32.788 57.6333L32.6215 57.6357L32.4508 57.638L32.2758 57.6401L32.0965 57.6421L31.9129 57.644L31.725 57.6458L31.5328 57.6474L31.3363 57.6488L31.1355 57.6502L30.9304 57.6514L30.721 57.6525L30.5072 57.6534L30.2892 57.6542L30.0669 57.6549L29.8403 57.6554L29.6094 57.6558L29.3742 57.6561L29.1347 57.6562L28.8909 57.6562L28.6428 57.6561L28.3904 57.6558L28.1337 57.6554L27.8726 57.6549L27.6073 57.6542L27.3377 57.6534L27.0638 57.6525L26.7856 57.6514L26.5031 57.6502L26.2163 57.6488L25.9252 57.6474L25.6298 57.6458L25.3301 57.644L25.0261 57.6421L24.7177 57.6401L24.4051 57.638L24.0882 57.6357L23.767 57.6333L23.4415 57.6307L23.1117 57.628L22.7776 57.6252L22.4392 57.6222L22.0965 57.6191L21.7495 57.6159L21.3982 57.6126L21.0425 57.6091L20.6826 57.6054L20.3184 57.6017L19.9499 57.5978L19.5771 57.5937L19.2 57.5896" sodipodi:nodetypes="ccccccccccccccccccccccccccccccccccccccccccccccccccccccccccccccccccccccccccccccccccccccccccccccccccccccccccccccccccccccccccccccccccccccccccccccccccccccccccccccccccccccccccccccccccccccccccccccccccccccccccccccccccccccccccccccccccccccccccccccccccccccccccccccccccccccccccccccccccccccccccccccccccccccccccccccccccccccccccccccccccccccccccccccccccccccccccccccccccccccccccccccccccccccccccccccccccccccccccccccccccccccccccccccccccccccccccccccccccccccccccccccccccccccccccccccccccccccccccccccccccccccccccccccccccccccccccccccccccccccccccccccccccccccccccccccccccccccccccccccccccccccccccccc"/><path id="shape1" transform="translate(19.2, 19.2075001516601)" fill="none" stroke="#c1b04d" stroke-width="2.88" stroke-linecap="round" stroke-linejoin="round" d="M0 38.3925C0.00312301 17.2808 19.1998 0.0052855 42.24 1.21017e-06C65.2802 -0.00528308 84.479 17.2959 84.48 38.3925C77.312 38.3925 72.192 38.3925 69.12 38.3925C69.1029 26.8639 55.6885 15.3584 42.24 15.3276C28.7915 15.2968 15.357 26.8721 15.36 38.3925C13.0844 38.4814 7.96445 38.4814 0 38.3925Z" sodipodi:nodetypes="czcczcc"/><circle id="shape0" transform="matrix(1.07128906448839 0 0 1.07128906448839 3.85499978620859 3.85499978620854)" r="53.76" cx="53.76" cy="53.76" fill="none" stroke="#000000" stroke-width="2.88" stroke-linecap="round" stroke-linejoin="round"/>
</svg>
