<?xml version="1.0" standalone="no"?>
<!DOCTYPE svg PUBLIC "-//W3C//DTD SVG 20010904//EN" "http://www.w3.org/TR/2001/REC-SVG-20010904/DTD/svg10.dtd">
<!-- Created using Krita: https://krita.org -->
<svg xmlns="http://www.w3.org/2000/svg" 
    xmlns:xlink="http://www.w3.org/1999/xlink"
    xmlns:krita="http://krita.org/namespaces/svg/krita"
    xmlns:sodipodi="http://sodipodi.sourceforge.net/DTD/sodipodi-0.dtd"
    width="122.88pt"
    height="122.88pt"
    viewBox="0 0 122.88 122.88">
<defs/>
<path id="shape0" transform="translate(7.68, 23.0399994983943)" fill="none" stroke="#f7e163" stroke-width="7.68" stroke-linecap="round" stroke-linejoin="round" d="M0 0L107.52 0" sodipodi:nodetypes="cc"/><path id="shape1" transform="translate(53.76, 7.67999949839432)" fill="none" stroke="#f7e163" stroke-width="7.68" stroke-linecap="round" stroke-linejoin="round" d="M0 0L15.36 0" sodipodi:nodetypes="cc"/><path id="shape2" transform="translate(69.12, 7.67999949839432)" fill="none" stroke="#f7e163" stroke-width="7.68" stroke-linecap="round" stroke-linejoin="round" d="M0 0L23.04 15.36" sodipodi:nodetypes="cc"/><path id="shape3" transform="translate(30.72, 7.67999949839432)" fill="none" stroke="#f7e163" stroke-width="7.68" stroke-linecap="round" stroke-linejoin="round" d="M23.04 0L0 15.36" sodipodi:nodetypes="cc"/><path id="shape4" transform="translate(23.04, 38.4)" fill="none" stroke="#f7e163" stroke-width="7.68" stroke-linecap="round" stroke-linejoin="round" d="M0 0L76.8 0" sodipodi:nodetypes="cc"/><path id="shape5" transform="translate(84.48, 38.4)" fill="none" stroke="#f7e163" stroke-width="7.68" stroke-linecap="round" stroke-linejoin="round" d="M15.36 0L0 69.12" sodipodi:nodetypes="cc"/><path id="shape6" transform="translate(38.4, 107.52)" fill="none" stroke="#f7e163" stroke-width="7.68" stroke-linecap="round" stroke-linejoin="round" d="M46.08 0L0 0" sodipodi:nodetypes="cc"/><path id="shape7" transform="translate(23.04, 38.4)" fill="none" stroke="#f7e163" stroke-width="7.68" stroke-linecap="round" stroke-linejoin="round" d="M15.36 69.12L0 0" sodipodi:nodetypes="cc"/><path id="shape8" transform="translate(61.44, 54.119999968149)" fill="none" stroke="#f7e163" stroke-width="3.84" stroke-linecap="round" stroke-linejoin="round" d="M0 38.4L0 0" sodipodi:nodetypes="cc"/><path id="shape9" transform="translate(42.24, 53.76)" fill="none" stroke="#f7e163" stroke-width="3.84" stroke-linecap="round" stroke-linejoin="round" d="M7.68 38.4L0 0" sodipodi:nodetypes="cc"/><path id="shape10" transform="translate(72.96, 53.76)" fill="none" stroke="#f7e163" stroke-width="3.84" stroke-linecap="round" stroke-linejoin="round" d="M0 38.4L7.68 0" sodipodi:nodetypes="cc"/>
</svg>
