<?xml version="1.0" standalone="no"?>
<!DOCTYPE svg PUBLIC "-//W3C//DTD SVG 20010904//EN" "http://www.w3.org/TR/2001/REC-SVG-20010904/DTD/svg10.dtd">
<!-- Created using Krita: https://krita.org -->
<svg xmlns="http://www.w3.org/2000/svg" 
    xmlns:xlink="http://www.w3.org/1999/xlink"
    xmlns:krita="http://krita.org/namespaces/svg/krita"
    xmlns:sodipodi="http://sodipodi.sourceforge.net/DTD/sodipodi-0.dtd"
    width="122.88pt"
    height="122.88pt"
    viewBox="0 0 122.88 122.88">
<defs/>
<circle id="shape0" transform="matrix(1.0000001117587 0 0 1.0000001117587 23.0399922752386 69.1253083172401)" r="15.36" cx="15.36" cy="15.36" fill="none" stroke="#f7e163" stroke-width="7.68" stroke-linecap="round" stroke-linejoin="round"/><path id="shape6" transform="matrix(1.0000001117587 0 0 1.0000001117587 69.1199927902225 76.8053091755469)" fill="none" stroke="#f7e163" stroke-width="7.68" stroke-linecap="round" stroke-linejoin="round" d="M46.08 0L0 5.2575e-06" sodipodi:nodetypes="cc"/><path id="shape7" transform="matrix(1.0000001117587 0 0 1.0000001117587 38.3999914169315 46.0853026524142)" fill="none" stroke="#f7e163" stroke-width="7.68" stroke-linecap="round" stroke-linejoin="round" d="M76.8 3.0899e-06L0 0" sodipodi:nodetypes="cc"/><path id="shape01" transform="matrix(1.00000009567491 0 0 1.00000009567491 99.8383602081509 57.4636841381013)" fill="none" stroke="#f7e163" stroke-width="5.76" stroke-linecap="round" stroke-linejoin="round" d="M0.00164065 0L0 7.68" sodipodi:nodetypes="cc"/><path id="shape011" transform="matrix(1.0000000508018 0 0 1.0000000508018 84.4783584916107 57.6642622853613)" fill="none" stroke="#f7e163" stroke-width="5.76" stroke-linecap="round" stroke-linejoin="round" d="M0.00164065 0L0 7.68" sodipodi:nodetypes="cc"/><path id="shape02" transform="matrix(1.0000000508018 0 0 1.0000000508018 69.1183567749967 57.5730934311148)" fill="none" stroke="#f7e163" stroke-width="5.76" stroke-linecap="round" stroke-linejoin="round" d="M0.00164065 0L0 7.68" sodipodi:nodetypes="cc"/><path id="shape04" transform="matrix(1.00000008825287 0 0 1.00000008825287 99.8383602081632 26.838215190255)" fill="none" stroke="#f7e163" stroke-width="5.76" stroke-linecap="round" stroke-linejoin="round" d="M0.00164065 0L0 7.68" sodipodi:nodetypes="cc"/><path id="shape0111" transform="matrix(1.00000004337977 0 0 1.00000004337977 84.4783586056255 27.0387933360265)" fill="none" stroke="#f7e163" stroke-width="5.76" stroke-linecap="round" stroke-linejoin="round" d="M0.00164065 0L0 7.68" sodipodi:nodetypes="cc"/><path id="shape021" transform="matrix(1.00000004337977 0 0 1.00000004337977 69.1183570030142 26.9476244824567)" fill="none" stroke="#f7e163" stroke-width="5.76" stroke-linecap="round" stroke-linejoin="round" d="M0.00164065 0L0 7.68" sodipodi:nodetypes="cc"/><path id="shape05" transform="matrix(1.00000007110467 0 0 1.00000007110467 99.8383602081912 88.2956872026412)" fill="none" stroke="#f7e163" stroke-width="5.76" stroke-linecap="round" stroke-linejoin="round" d="M0.00164065 0L0 7.68" sodipodi:nodetypes="cc"/><path id="shape01111" transform="matrix(1.00000002623157 0 0 1.00000002623157 84.4783588690498 88.4962653449731)" fill="none" stroke="#f7e163" stroke-width="5.76" stroke-linecap="round" stroke-linejoin="round" d="M0.00164065 0L0 7.68" sodipodi:nodetypes="cc"/><path id="shape0211" transform="matrix(1.00000002623157 0 0 1.00000002623157 69.118357529835 88.4050964929667)" fill="none" stroke="#f7e163" stroke-width="5.76" stroke-linecap="round" stroke-linejoin="round" d="M0.00164065 0L0 7.68" sodipodi:nodetypes="cc"/><path id="shape011" transform="matrix(1.00000004470348 0 0 1.00000004470348 38.3999914169315 15.3653012791232)" fill="none" stroke="#f7e163" stroke-width="7.68" stroke-linecap="round" stroke-linejoin="round" d="M0 38.4L0 7.68C0 2.56 2.56 0 7.68 0C12.8 0 33.28 0 69.12 0C74.24 0 76.8 2.56 76.8 7.68C76.8 12.8 76.8 38.4 76.8 84.48C76.8 89.6 74.24 92.16 69.12 92.16C64 92.16 48.64 92.17 23.04 92.19" sodipodi:nodetypes="cczczczc"/><path id="shape1" transform="matrix(1.00000004470348 0 0 1.00000004470348 5.76390580463531 92.1653047123508)" fill="none" stroke="#f7e163" stroke-width="7.68" stroke-linecap="square" stroke-linejoin="bevel" d="M17.2761 0L1.91608 15.36C-0.638694 17.9333 -0.638694 20.4933 1.91608 23.04C4.47086 25.5867 7.03086 25.5867 9.59608 23.04L24.9561 7.68" sodipodi:nodetypes="cczcc"/>
</svg>
