<?xml version="1.0" standalone="no"?>
<!DOCTYPE svg PUBLIC "-//W3C//DTD SVG 20010904//EN" "http://www.w3.org/TR/2001/REC-SVG-20010904/DTD/svg10.dtd">
<!-- Created using Krita: https://krita.org -->
<svg xmlns="http://www.w3.org/2000/svg" 
    xmlns:xlink="http://www.w3.org/1999/xlink"
    xmlns:krita="http://krita.org/namespaces/svg/krita"
    xmlns:sodipodi="http://sodipodi.sourceforge.net/DTD/sodipodi-0.dtd"
    width="122.88pt"
    height="122.88pt"
    viewBox="0 0 122.88 122.88">
<defs/>
<path id="shape0" transform="translate(42.24, 99.84)" fill="none" stroke="#55ff55" stroke-width="7.68" stroke-linecap="round" stroke-linejoin="round" d="M0 0L38.4 0" sodipodi:nodetypes="cc"/><path id="shape01" transform="matrix(0.999999968085703 0 0 0.999999968085703 42.24 61.44)" fill="none" stroke="#ffff55" stroke-width="7.68" stroke-linecap="round" stroke-linejoin="round" d="M0 0L38.43 1.42109e-14" sodipodi:nodetypes="cc"/><path id="shape02" transform="matrix(0.999999936171407 0 0 0.999999936171407 42.24 23.04)" fill="none" stroke="#ff5555" stroke-width="7.68" stroke-linecap="round" stroke-linejoin="round" d="M0 1.42109e-14L38.4 0" sodipodi:nodetypes="cc"/><path id="shape03" transform="matrix(0.999999936171407 0 0 0.999999936171407 42.24 51.8399999999999)" fill="none" stroke="#ffaa55" stroke-width="7.68" stroke-linecap="round" stroke-linejoin="round" d="M0 6.39488e-14L38.4 0" sodipodi:nodetypes="cc"/><path id="shape04" transform="matrix(0.999999936171407 0 0 0.999999936171407 42.24 32.64)" fill="none" stroke="#ff5555" stroke-width="7.68" stroke-linecap="round" stroke-linejoin="round" d="M0 2.84217e-14L38.4 0" sodipodi:nodetypes="cc"/><path id="shape05" transform="matrix(0.999999936171407 0 0 0.999999936171407 42.24 42.24)" fill="none" stroke="#ffaa55" stroke-width="7.68" stroke-linecap="round" stroke-linejoin="round" d="M0 1.42109e-14L38.4 0" sodipodi:nodetypes="cc"/><path id="shape06" transform="matrix(0.999999968085703 0 0 0.999999968085703 42.24 80.6399999999999)" fill="none" stroke="#55ff55" stroke-width="7.68" stroke-linecap="round" stroke-linejoin="round" d="M0 0L38.4 5.68434e-14" sodipodi:nodetypes="cc"/><rect id="shape07" transform="matrix(0.999999972137006 0 0 0.999999972137006 30.72 13.44)" fill="none" stroke="#fbdf56" stroke-width="7.68" stroke-linecap="round" stroke-linejoin="round" width="61.4400017119024" height="96.0000026748475"/><path id="shape061" transform="matrix(0.999999968085703 0 0 0.999999968085703 42.24 90.24)" fill="none" stroke="#55ff55" stroke-width="7.68" stroke-linecap="round" stroke-linejoin="round" d="M0 0L38.4 -1.42109e-14" sodipodi:nodetypes="cc"/><path id="shape0_7c343082" transform="matrix(0.999999968085703 0 0 0.999999968085703 42.24 71.04)" fill="none" stroke="#ffff55" stroke-width="7.68" stroke-linecap="round" stroke-linejoin="round" d="M0 0L38.4 4.26326e-14" sodipodi:nodetypes="cc"/>
</svg>
